<?xml version="1.0" encoding="UTF-8"?>
<svg xmlns="http://www.w3.org/2000/svg" viewBox="0 0 1200 630" width="1200" height="630">
  <defs>
    <linearGradient id="g79874" x1="96.67902132486009%" y1="32.08160252273499%" x2="3.320978675139912%" y2="67.91839747726502%">
      <stop offset="0%" stop-color="#D97706"/>
      <stop offset="100%" stop-color="#B45309"/>
    </linearGradient>
  </defs>
  <rect width="1200" height="630" fill="url(#g79874)"/>
  <polygon points="487.75658634956926,246.66868318337947 557.7565863495693,206.66868318337947 627.7565863495693,246.66868318337947 557.7565863495693,286.66868318337947" fill="rgba(255,255,255,0.08)" stroke="rgba(255,255,255,0.15)" stroke-width="2"/><line x1="617.7565863495693" y1="251.66868318337947" x2="617.7565863495693" y2="306.66868318337947" stroke="rgba(255,255,255,0.12)" stroke-width="2"/><path d="M 846.6534667648375 361.54387294780463 C 816.6534667648375 351.54387294780463 766.6534667648375 356.54387294780463 756.6534667648375 291.54387294780463 L 846.6534667648375 301.54387294780463 L 936.6534667648375 291.54387294780463 C 926.6534667648375 356.54387294780463 876.6534667648375 351.54387294780463 846.6534667648375 361.54387294780463 Z" fill="rgba(255,255,255,0.06)" stroke="rgba(255,255,255,0.12)" stroke-width="1.5"/><line x1="846.6534667648375" y1="361.54387294780463" x2="846.6534667648375" y2="301.54387294780463" stroke="rgba(255,255,255,0.12)" stroke-width="1.5"/><rect x="173.37000437546521" y="409.98533522710204" width="8" height="100" rx="1" fill="rgba(255,255,255,0.1)" transform="rotate(36.732917740009725 173.37000437546521 409.98533522710204)"/><circle cx="963.5136044584215" cy="179.51089471578598" r="30" fill="none" stroke="rgba(255,255,255,0.12)" stroke-width="2"/><line x1="953.5136044584215" y1="209.51089471578598" x2="973.5136044584215" y2="209.51089471578598" stroke="rgba(255,255,255,0.1)" stroke-width="2"/><line x1="955.5136044584215" y1="216.51089471578598" x2="971.5136044584215" y2="216.51089471578598" stroke="rgba(255,255,255,0.1)" stroke-width="2"/><circle cx="739.7440834203735" cy="446.01603016257286" r="5.095940784551203" fill="rgba(255,255,255,0.04908615339547396)"/><circle cx="638.0734627600759" cy="233.5822139494121" r="2.9286030661314726" fill="rgba(255,255,255,0.06824915140867233)"/><circle cx="491.60431281197816" cy="287.88766564335674" r="3.0036330800503492" fill="rgba(255,255,255,0.04156140731647611)"/><circle cx="308.43057178426534" cy="92.36687645316124" r="2.287976344116032" fill="rgba(255,255,255,0.08248650608584285)"/><circle cx="69.14201844483614" cy="60.02638435456902" r="5.8354828944429755" fill="rgba(255,255,255,0.05838085360825062)"/><circle cx="503.93615199718624" cy="235.29391646385193" r="3.0580657552927732" fill="rgba(255,255,255,0.11255126802250742)"/><circle cx="783.5556667530909" cy="485.9363783709705" r="3.9065419007092714" fill="rgba(255,255,255,0.055220603477209806)"/><circle cx="953.3288358012214" cy="128.8939000456594" r="4.10705279186368" fill="rgba(255,255,255,0.10306485794484616)"/><circle cx="524.1294885287061" cy="404.5783794904128" r="2.598281489685178" fill="rgba(255,255,255,0.09273301135748625)"/><circle cx="332.6846062671393" cy="138.52952643064782" r="2.4179079635068774" fill="rgba(255,255,255,0.11423751547932626)"/><circle cx="832.7654017368332" cy="506.14619807340205" r="3.1922934437170625" fill="rgba(255,255,255,0.10740145662799477)"/><circle cx="439.47542579844594" cy="383.25802598148584" r="2.9599889870733023" fill="rgba(255,255,255,0.11240984369069337)"/><circle cx="596.3681216817349" cy="413.3879663888365" r="5.3497401075437665" fill="rgba(255,255,255,0.0614327022433281)"/><circle cx="100.98457301501185" cy="527.5967501895502" r="5.92980947252363" fill="rgba(255,255,255,0.09552400613203646)"/><circle cx="938.5294688399881" cy="335.9023886243813" r="3.8440951481461525" fill="rgba(255,255,255,0.07228400951251387)"/>
  <circle cx="415.8807523548603" cy="590.650118929334" r="1.2316092983819544" fill="rgba(255,255,255,0.06458201199537143)"/><circle cx="471.1467563174665" cy="603.747936997097" r="1.521320637781173" fill="rgba(255,255,255,0.04004965774482116)"/><circle cx="1189.0230336226523" cy="52.08328808192164" r="2.7158136377111077" fill="rgba(255,255,255,0.05950056947302074)"/><circle cx="523.7751932814717" cy="571.4876945572905" r="1.3866415955126286" fill="rgba(255,255,255,0.043701806496828796)"/><circle cx="913.5155830532312" cy="259.90074972622097" r="2.9397574667818844" fill="rgba(255,255,255,0.030357361405622212)"/><circle cx="205.58303939178586" cy="562.4084824416786" r="1.8070124122314155" fill="rgba(255,255,255,0.06244299493962899)"/><circle cx="398.99277202785015" cy="298.35052805487067" r="1.412742456421256" fill="rgba(255,255,255,0.0633069214830175)"/><circle cx="688.8985435478389" cy="588.845372130163" r="2.703502323012799" fill="rgba(255,255,255,0.03436068210983649)"/><circle cx="587.7288043498993" cy="410.1708822953515" r="2.7608015816658735" fill="rgba(255,255,255,0.05936760743614286)"/><circle cx="556.1463030986488" cy="626.4957650215365" r="2.53696407051757" fill="rgba(255,255,255,0.03813912855228409)"/><circle cx="907.5020615011454" cy="227.11414407240227" r="1.887285110540688" fill="rgba(255,255,255,0.052117490577511486)"/><circle cx="282.94099755585194" cy="278.01236951490864" r="2.5104557937011123" fill="rgba(255,255,255,0.07862984261708333)"/><circle cx="26.9935866817832" cy="126.56961378408596" r="2.688838303554803" fill="rgba(255,255,255,0.042205224484205245)"/><circle cx="123.9352916367352" cy="311.33812975371256" r="2.9031028407625854" fill="rgba(255,255,255,0.051038815972860904)"/><circle cx="540.5477307736874" cy="36.80524255614728" r="1.1766229695640504" fill="rgba(255,255,255,0.07255740438820794)"/><circle cx="1139.840536750853" cy="421.9422445516102" r="2.700743765104562" fill="rgba(255,255,255,0.037354259130079295)"/><circle cx="17.76205636560917" cy="134.34439165284857" r="2.266869315877557" fill="rgba(255,255,255,0.07358595452504232)"/><circle cx="596.6852358542383" cy="615.4559726966545" r="1.295803226530552" fill="rgba(255,255,255,0.06796619282802567)"/><circle cx="599.1981360130012" cy="423.09439688455313" r="2.8970977519638836" fill="rgba(255,255,255,0.04956634585512802)"/><circle cx="1108.919280488044" cy="155.7101345155388" r="1.7322057601995766" fill="rgba(255,255,255,0.05892862650332972)"/>
  <text x="600" y="335" font-family="system-ui, -apple-system, 'Segoe UI', sans-serif" font-size="68" font-weight="700" fill="rgba(0,0,0,0.15)" text-anchor="middle" letter-spacing="1">Maturit Italy</text>
  <text x="600" y="332" font-family="system-ui, -apple-system, 'Segoe UI', sans-serif" font-size="68" font-weight="700" fill="white" text-anchor="middle" letter-spacing="1">Maturit Italy</text>
  <g transform="translate(1140, 575)">
    <rect x="0" y="0" width="40" height="40" rx="8" fill="rgba(255,255,255,0.15)"/>
    <text x="20" y="29" font-family="sans-serif" font-weight="bold" font-size="24" fill="rgba(255,255,255,0.6)" text-anchor="middle">K</text>
  </g>
</svg>